PathFileType	4	(X/Y/Z)	/Users/itak/Documents/Research/Walk-IL/dataset/trc/00129_00007.trc
DataRate	CameraRate	NumFrames	NumMarkers	Units	OrigDataRate	OrigDataStartFrame	OrigNumFrames
100.000000	100.000000	4	53	mm	100.000000	270	721
Frame#	Time	RPSI			LPSI			L3			STRN			T10			C7			CLAV			RBAK			LBAK			LSHO			LUPA			LAEL			LAOL			LWTS			LWPS			LFRA			LIFD			LHPS			LHTS			RSHO			RUPA			RAEL			RAOL			RWTS			RWPS			RFRA			RIFD			RHTS			RHPS			RBHD			LFHD			RFHD			LBHD			LHIP			RHIP			RASI			LASI			LKNE			LTHI			LANK			LTIP			LTOE			LMT1			LMT5			LHEE			RKNE			RTHI			RANK			RTIP			RTOE			RMT1			RMT5			RHEE			
		X1	Y1	Z1	X2	Y2	Z2	X3	Y3	Z3	X4	Y4	Z4	X5	Y5	Z5	X6	Y6	Z6	X7	Y7	Z7	X8	Y8	Z8	X9	Y9	Z9	X10	Y10	Z10	X11	Y11	Z11	X12	Y12	Z12	X13	Y13	Z13	X14	Y14	Z14	X15	Y15	Z15	X16	Y16	Z16	X17	Y17	Z17	X18	Y18	Z18	X19	Y19	Z19	X20	Y20	Z20	X21	Y21	Z21	X22	Y22	Z22	X23	Y23	Z23	X24	Y24	Z24	X25	Y25	Z25	X26	Y26	Z26	X27	Y27	Z27	X28	Y28	Z28	X29	Y29	Z29	X30	Y30	Z30	X31	Y31	Z31	X32	Y32	Z32	X33	Y33	Z33	X34	Y34	Z34	X35	Y35	Z35	X36	Y36	Z36	X37	Y37	Z37	X38	Y38	Z38	X39	Y39	Z39	X40	Y40	Z40	X41	Y41	Z41	X42	Y42	Z42	X43	Y43	Z43	X44	Y44	Z44	X45	Y45	Z45	X46	Y46	Z46	X47	Y47	Z47	X48	Y48	Z48	X49	Y49	Z49	X50	Y50	Z50	X51	Y51	Z51	X52	Y52	Z52	X53	Y53	Z53	

271	2.7	-514.933349609375	1098.771362304688	190.0940399169922	-646.8468017578125	1105.114013671875	158.9742584228516	-584.4373779296875	1138.067626953125	180.363037109375	-520.0709228515625	1334.692626953125	-34.6478271484375	-591.3240356445312	1290.921630859375	213.0722045898438	-582.2013549804688	1582.745849609375	173.4840850830078	-523.7789306640625	1469.967529296875	0.5196827054023743	-526.125244140625	1393.126586914062	247.4135589599609	-681.8334350585938	1569.252807617188	146.6967926025391	-719.5996704101562	1558.324462890625	41.65841293334961	-800.0947265625	1431.007690429688	38.02605056762695	-836.9354248046875	1216.07958984375	17.783447265625	-798.7733764648438	1197.815185546875	95.905029296875	-789.2962036132812	962.1788940429688	-87.11344146728516	-833.9210815429688	933.2703247070312	-15.59799289703369	-845.7413940429688	1101.256958007812	-5.642705917358398	-769.7078857421875	769.30224609375	-104.818977355957	-829.6845703125	859.4541625976562	-48.46939086914062	-799.1792602539062	873.1409301757812	-109.6748580932617	-393.6296691894531	1549.694091796875	175.118408203125	-345.50390625	1473.602783203125	213.8461761474609	-360.8495788574219	1181.790161132812	244.8425445556641	-451.4227905273438	1189.542602539062	215.3865356445312	-339.978759765625	927.73291015625	125.3008651733398	-345.4930419921875	916.0821533203125	207.3006591796875	-345.3449096679688	1106.2080078125	234.0373687744141	-346.0273742675781	732.3323974609375	103.2170944213867	-330.5640869140625	818.4351806640625	106.4837188720703	-335.9862060546875	813.2719116210938	180.5204925537109	-501.022216796875	1741.975830078125	174.2123565673828	-524.4114379882812	1826.286987304688	-29.2728157043457	-414.541259765625	1816.363525390625	38.05057144165039	-619.7667846679688	1756.070678710938	112.2806015014648	-737.0050659179688	1022.03662109375	47.66192626953125	-378.8759460449219	996.4034423828125	88.49671936035156	-410.5024108886719	1071.97119140625	0.8054520487785339	-669.6422119140625	1082.229614257812	-53.33204650878906	-755.5860595703125	510.0668029785156	-15.80794048309326	-764.9194946289062	664.715576171875	10.15563869476318	-882.4015502929688	212.8579711914062	419.6131591796875	-846.7154541015625	381.8025207519531	210.2001953125	-795.7254028320312	23.05126762390137	334.2919616699219	-772.9193115234375	92.72486877441406	366.8523864746094	-884.9219970703125	94.35377502441406	380.70751953125	-830.934814453125	282.4920349121094	449.2013549804688	-468.8993835449219	521.0208129882812	-23.17579460144043	-398.0075988769531	787.6921997070312	30.96875381469727	-602.8859252929688	25.97440910339355	-41.71332931518555	-486.0767822265625	384.899658203125	-23.51444435119629	-513.3112182617188	54.88912963867188	-258.0776977539062	-580.8353881835938	43.81415939331055	-235.2822113037109	-509.4904174804688	42.57139587402344	-137.0488433837891	-674.2540893554688	28.31612396240234	-24.0187873840332	
272	2.71	-512.9931640625	1099.358764648438	182.4081115722656	-644.5061645507812	1105.357055664062	149.2681732177734	-582.2970581054688	1138.345703125	171.6376647949219	-514.9072875976562	1335.472900390625	-42.5081901550293	-589.163818359375	1291.396606445312	203.8869323730469	-579.3265380859375	1583.453491210938	165.0000762939453	-519.2643432617188	1470.764038085938	-7.465760231018066	-523.7850341796875	1393.807495117188	239.4942321777344	-678.7222290039062	1569.68359375	137.2497863769531	-715.7928466796875	1558.494506835938	31.93759727478027	-795.8467407226562	1430.857299804688	28.09772872924805	-831.8361206054688	1215.709350585938	8.315845489501953	-794.3626098632812	1197.9658203125	86.90204620361328	-783.1375122070312	960.677734375	-93.53559875488281	-828.7046508789062	932.6476440429688	-22.33303833007812	-840.3338623046875	1100.706298828125	-14.19323062896729	-763.5719604492188	767.5814819335938	-108.7660751342773	-824.115234375	858.4620361328125	-54.30348205566406	-792.7427978515625	871.3914184570312	-115.2014617919922	-390.8075866699219	1550.516845703125	168.3741607666016	-342.7972717285156	1474.392700195312	207.3242950439453	-356.7403259277344	1182.243286132812	236.6329956054688	-447.2594604492188	1189.706298828125	207.0354919433594	-334.0028686523438	929.447265625	114.928840637207	-339.6377258300781	916.934814453125	196.7856140136719	-340.76318359375	1106.80224609375	225.2510528564453	-338.9685668945312	734.2799072265625	90.79262542724609	-323.7052612304688	820.4822998046875	95.03981781005859	-329.3096923828125	814.4755249023438	168.9828796386719	-498.1375732421875	1742.36962890625	166.4403381347656	-519.7412109375	1827.315185546875	-36.99058151245117	-410.4805603027344	1817.194946289062	31.29474830627441	-616.3275756835938	1756.638305664062	103.5190658569336	-733.0253295898438	1023.171875	36.55855560302734	-375.2401428222656	996.9358520507812	83.08983612060547	-405.3458251953125	1072.672119140625	-5.216980934143066	-663.5130615234375	1083.070068359375	-63.421875	-746.7131958007812	510.8136596679688	-37.58229064941406	-757.776123046875	665.2332763671875	-8.918792724609375	-883.8638916015625	217.116455078125	396.7327575683594	-843.1553955078125	383.6250305175781	186.6940002441406	-796.1470336914062	24.76275253295898	314.091796875	-773.5577392578125	96.24920654296875	346.6051940917969	-886.0228271484375	98.59962463378906	357.9183349609375	-832.9539794921875	286.3731079101562	427.7063598632812	-467.1490478515625	520.5503540039062	-25.26449012756348	-395.4437561035156	787.55419921875	26.73652267456055	-602.7559204101562	25.96808242797852	-41.81513595581055	-484.7198181152344	384.6229858398438	-25.03732299804688	-513.1854248046875	53.21455001831055	-258.7555541992188	-580.9619140625	43.06753540039062	-235.6762084960938	-509.3968505859375	42.29756927490234	-137.3836212158203	-674.0988159179688	28.43369293212891	-23.95266723632812	
273	2.72	-511.1575622558594	1099.895385742188	174.8771820068359	-642.2184448242188	1105.613037109375	139.610107421875	-580.233154296875	1138.615844726562	163.0149841308594	-509.6638793945312	1336.217529296875	-50.15953063964844	-587.146728515625	1291.802612304688	194.7876129150391	-576.4845581054688	1584.10888671875	156.6488494873047	-514.718994140625	1471.525024414062	-15.27203941345215	-521.5292358398438	1394.430053710938	231.7320098876953	-675.6234130859375	1570.062744140625	127.9071426391602	-711.9568481445312	1558.657592773438	22.3242244720459	-791.5790405273438	1430.706665039062	18.27459716796875	-826.7078247070312	1215.345825195312	-1.049756765365601	-789.84912109375	1198.106201171875	77.96913909912109	-777.0091552734375	959.2422485351562	-99.92503356933594	-823.4696044921875	932.0804443359375	-29.02218818664551	-834.8917846679688	1100.1787109375	-22.66528129577637	-757.7459106445312	765.9775390625	-112.9088134765625	-818.6568603515625	857.5720825195312	-60.16241455078125	-786.4907836914062	869.7896118164062	-120.7735366821289	-388.0512084960938	1551.308349609375	161.8490447998047	-340.1652526855469	1475.158447265625	201.0323486328125	-352.651123046875	1182.667724609375	228.573486328125	-443.096435546875	1189.837280273438	198.7807312011719	-327.8821411132812	931.1862182617188	104.6589736938477	-333.6578674316406	917.8287963867188	186.3636779785156	-336.1597595214844	1107.386108398438	216.6038513183594	-331.9014892578125	736.2501220703125	78.63279724121094	-316.6758117675781	822.5404052734375	83.76712799072266	-322.4390869140625	815.748779296875	157.6094360351562	-495.2585754394531	1742.725952148438	158.7137451171875	-515.031982421875	1828.266967773438	-44.65528106689453	-406.3868713378906	1817.953735351562	24.59993934631348	-612.8596801757812	1757.16650390625	94.79341125488281	-728.8795776367188	1024.250244140625	25.35424613952637	-371.6754150390625	997.4011840820312	77.99954223632812	-400.1502685546875	1073.3232421875	-10.91085147857666	-657.2228393554688	1083.880737304688	-73.44258880615234	-737.3200073242188	511.7933044433594	-58.94367980957031	-750.3355712890625	665.930908203125	-27.76290893554688	-884.8612060546875	220.0193023681641	372.9384460449219	-839.015869140625	385.2202758789062	163.2590026855469	-796.5552368164062	26.91061210632324	290.4073791503906	-774.0369873046875	99.00068664550781	323.9266662597656	-886.9118041992188	102.1121292114258	332.6816101074219	-834.4613037109375	288.4532775878906	406.0956420898438	-465.3913879394531	520.0631103515625	-27.05142974853516	-392.9054870605469	787.41943359375	22.76635932922363	-602.6173095703125	25.95410919189453	-41.90120315551758	-483.4293212890625	384.3485412597656	-26.30976676940918	-513.022216796875	51.57315826416016	-259.3992309570312	-581.0665893554688	42.38977432250977	-236.0565185546875	-509.2740783691406	42.02167892456055	-137.6970672607422	-673.9283447265625	28.5584774017334	-23.87815475463867	
274	2.73	-509.4036865234375	1100.373046875	167.4732513427734	-639.9645385742188	1105.880249023438	130.0060119628906	-578.2205200195312	1138.896850585938	154.4984283447266	-504.3433837890625	1336.930786132812	-57.60744476318359	-585.2391357421875	1292.16455078125	185.8092346191406	-573.6790161132812	1584.72021484375	148.4098968505859	-510.1414184570312	1472.252319335938	-22.90457344055176	-519.3641967773438	1395.005737304688	224.118408203125	-672.54833984375	1570.419677734375	118.6353454589844	-708.0730590820312	1558.844604492188	12.78306770324707	-787.2855834960938	1430.594970703125	8.506754875183105	-821.5626831054688	1215.0263671875	-10.29877662658691	-785.2286376953125	1198.290161132812	69.11196899414062	-770.9222412109375	957.9143676757812	-106.2885360717773	-818.1849365234375	931.594970703125	-35.64239120483398	-829.427734375	1099.70654296875	-31.03797721862793	-752.1611938476562	764.5205688476562	-117.2402496337891	-813.2696533203125	856.8018798828125	-66.02295684814453	-780.4178466796875	868.3561401367188	-126.3878326416016	-385.3648681640625	1552.08447265625	155.5317687988281	-337.6153869628906	1475.919921875	194.9652709960938	-348.6239318847656	1183.085693359375	220.7052307128906	-438.9634094238281	1189.966064453125	190.6312255859375	-321.6158447265625	932.9833374023438	94.53363037109375	-327.6068115234375	918.7848510742188	176.0709838867188	-331.5811157226562	1107.978637695312	208.1439208984375	-324.8456726074219	738.289306640625	66.72677612304688	-309.4690856933594	824.6456298828125	72.68943023681641	-315.4308166503906	817.1114501953125	146.4215087890625	-492.3822326660156	1743.065063476562	151.0371246337891	-510.2693176269531	1829.142333984375	-52.27297973632812	-402.2493591308594	1818.634765625	17.9646110534668	-609.3534545898438	1757.681762695312	86.10420989990234	-724.4981689453125	1025.18017578125	14.01224517822266	-368.1842041015625	997.7959594726562	73.19307708740234	-394.923095703125	1073.921630859375	-16.28756523132324	-650.7803344726562	1084.66259765625	-83.37773895263672	-727.4429321289062	513.0236206054688	-79.84156799316406	-742.59716796875	666.8095092773438	-46.32400894165039	-885.3900756835938	221.66259765625	348.2702026367188	-834.3145141601562	386.578125	139.9177398681641	-796.9107055664062	29.16254997253418	263.7057189941406	-774.3358764648438	100.8521881103516	299.1119079589844	-887.5563354492188	104.9043350219727	305.2949523925781	-835.4427490234375	288.837646484375	384.2519836425781	-463.6329345703125	519.5541381835938	-28.51608467102051	-390.3543395996094	787.2885131835938	19.07948303222656	-602.4852905273438	25.94108772277832	-41.97747039794922	-482.2238159179688	384.0696716308594	-27.28160285949707	-512.8273315429688	50.00008773803711	-259.9974365234375	-581.1427612304688	41.78327941894531	-236.4146575927734	-509.1283874511719	41.74609375	-137.9893341064453	-673.7596435546875	28.68747711181641	-23.80400466918945	
